<svg width="310" height="40" viewBox="0 0 310 40" fill="none" xmlns="http://www.w3.org/2000/svg"><path d="M5 24.2592C26.233 20.2879 47.7083 16.9968 69.135 13.8421C98.0469 9.5853 128.407 4.02322 158.059 5.14674C172.583 5.69708 187.686 8.66104 201.598 11.9696C207.232 13.3093 215.437 14.9471 220.137 18.3619C224.401 21.4596 220.737 25.6575 217.184 27.6168C208.309 32.5097 197.199 34.281 186.698 34.8486C183.159 35.0399 147.197 36.2657 155.105 26.5837C158.11 22.9053 162.993 20.6229 167.764 18.7924C178.386 14.7164 190.115 12.1115 201.624 10.3984C218.367 7.90626 235.528 7.06127 252.521 7.49276C258.455 7.64343 264.389 7.92791 270.295 8.41825C280.321 9.25056 296 10.8932 305 13.0242" stroke="#E55050" stroke-width="10" stroke-linecap="round"/></svg>